<svg xmlns="http://www.w3.org/2000/svg" xmlns:xlink="http://www.w3.org/1999/xlink" width="2560" zoomAndPan="magnify" viewBox="0 0 1920 1079.999946" height="1440" preserveAspectRatio="xMidYMid meet" version="1.0"><defs><g/><clipPath id="f9125ea273"><path d="M 283.367188 345.148438 L 782 345.148438 L 782 820.390625 L 283.367188 820.390625 Z M 283.367188 345.148438 " clip-rule="nonzero"/></clipPath><clipPath id="ba6aa57d35"><path d="M 334.367188 345.148438 L 730.6875 345.148438 C 744.214844 345.148438 757.1875 350.519531 766.75 360.085938 C 776.316406 369.648438 781.6875 382.621094 781.6875 396.148438 L 781.6875 769.195312 C 781.6875 782.722656 776.316406 795.695312 766.75 805.257812 C 757.1875 814.824219 744.214844 820.195312 730.6875 820.195312 L 334.367188 820.195312 C 320.839844 820.195312 307.867188 814.824219 298.304688 805.257812 C 288.738281 795.695312 283.367188 782.722656 283.367188 769.195312 L 283.367188 396.148438 C 283.367188 382.621094 288.738281 369.648438 298.304688 360.085938 C 307.867188 350.519531 320.839844 345.148438 334.367188 345.148438 " clip-rule="nonzero"/></clipPath><clipPath id="2c8ec729fa"><path d="M 496.101562 788.183594 L 570.40625 788.183594 L 570.40625 852.207031 L 496.101562 852.207031 Z M 496.101562 788.183594 " clip-rule="nonzero"/></clipPath></defs><g clip-path="url(#f9125ea273)"><g clip-path="url(#ba6aa57d35)"><path fill="#000000" d="M 283.367188 345.148438 L 781.390625 345.148438 L 781.390625 820.390625 L 283.367188 820.390625 Z M 283.367188 345.148438 " fill-opacity="1" fill-rule="nonzero"/></g></g><g clip-path="url(#2c8ec729fa)"><path fill="#ffffff" d="M 496.101562 788.183594 L 570.140625 788.183594 L 570.140625 852.097656 L 496.101562 852.097656 Z M 496.101562 788.183594 " fill-opacity="1" fill-rule="nonzero"/></g><g fill="#000000" fill-opacity="1"><g transform="translate(840.568184, 699.558187)"><g><path d="M 83.722656 -112.984375 L 39.015625 -219.734375 L 5.417969 -219.734375 L 68.007812 -81.824219 L 68.007812 0 L 98.625 0 L 98.625 -81.824219 L 161.210938 -219.734375 L 128.15625 -219.734375 Z M 83.722656 -112.984375 "/></g></g></g><g fill="#000000" fill-opacity="1"><g transform="translate(1007.197531, 699.558187)"><g><path d="M 76.136719 3.25 C 117.316406 3.25 140.890625 -22.757812 140.890625 -62.046875 L 140.890625 -92.121094 C 140.890625 -131.136719 117.316406 -157.417969 76.136719 -157.417969 C 34.679688 -157.417969 11.109375 -131.136719 11.109375 -92.121094 L 11.109375 -62.046875 C 11.109375 -22.757812 34.679688 3.25 76.136719 3.25 Z M 76.136719 -24.113281 C 54.460938 -24.113281 41.996094 -39.558594 41.996094 -60.421875 L 41.996094 -93.746094 C 41.996094 -114.609375 54.460938 -130.050781 76.136719 -130.050781 C 97.539062 -130.050781 110.003906 -114.878906 110.003906 -93.746094 L 110.003906 -60.421875 C 110.003906 -39.558594 97.539062 -24.113281 76.136719 -24.113281 Z M 76.136719 -24.113281 "/></g></g></g><g fill="#000000" fill-opacity="1"><g transform="translate(1159.195997, 699.558187)"><g><path d="M 72.070312 3.25 C 86.429688 3.25 109.460938 0.269531 129.78125 -4.605469 L 129.78125 -151.726562 L 99.4375 -151.726562 L 99.4375 -26.824219 C 90.496094 -24.65625 81.28125 -23.300781 73.695312 -23.300781 C 56.355469 -23.300781 46.058594 -29.804688 46.058594 -47.957031 L 46.058594 -152 L 15.171875 -152 L 15.171875 -46.601562 C 15.171875 -10.835938 37.117188 3.25 72.070312 3.25 Z M 72.070312 3.25 "/></g></g></g><g fill="#000000" fill-opacity="1"><g transform="translate(1304.149964, 699.558187)"><g><path d="M 45.519531 0 L 45.519531 -85.890625 L 82.636719 -85.890625 C 131.679688 -85.890625 150.101562 -110.542969 150.101562 -150.375 L 150.101562 -157.417969 C 150.101562 -193.722656 134.386719 -219.734375 82.636719 -219.734375 L 14.902344 -219.734375 L 14.902344 0 Z M 45.519531 -191.285156 L 80.742188 -191.285156 C 106.480469 -191.285156 118.945312 -182.074219 118.945312 -156.332031 L 118.945312 -149.019531 C 118.945312 -124.363281 107.835938 -114.066406 80.742188 -114.066406 L 45.519531 -114.066406 Z M 45.519531 -191.285156 "/></g></g></g><g fill="#000000" fill-opacity="1"><g transform="translate(1462.921971, 699.558187)"><g><path d="M 46.058594 0 L 46.058594 -219.734375 L 15.171875 -219.734375 L 15.171875 0 Z M 46.058594 0 "/></g></g></g><g fill="#000000" fill-opacity="1"><g transform="translate(1524.154844, 699.558187)"><g><path d="M 68.277344 -156.875 C 53.105469 -156.875 34.140625 -153.082031 24.386719 -148.476562 L 17.339844 -119.757812 C 31.160156 -125.71875 48.769531 -129.511719 61.503906 -129.511719 C 84.804688 -129.511719 95.101562 -120.839844 95.101562 -101.0625 L 95.101562 -91.035156 C 83.722656 -93.203125 75.050781 -93.746094 67.464844 -93.746094 C 30.617188 -93.746094 9.210938 -78.574219 9.210938 -46.871094 L 9.210938 -44.707031 C 9.210938 -11.652344 31.429688 3.523438 69.902344 3.523438 C 86.972656 3.523438 107.835938 0.269531 125.71875 -3.792969 L 125.71875 -103.230469 C 125.71875 -141.703125 104.855469 -156.875 68.277344 -156.875 Z M 39.828125 -47.144531 C 39.828125 -63.671875 51.207031 -70.988281 72.070312 -70.988281 C 78.03125 -70.988281 86.972656 -70.175781 95.101562 -68.277344 L 95.101562 -23.84375 C 86.972656 -22.488281 78.574219 -21.945312 71.800781 -21.945312 C 50.9375 -21.945312 39.828125 -29.804688 39.828125 -46.601562 Z M 39.828125 -47.144531 "/></g></g></g><g fill="#000000" fill-opacity="1"><g transform="translate(1662.87713, 699.558187)"><g><path d="M 97.539062 -30.34375 C 90.222656 -28.71875 80.199219 -27.636719 72.339844 -27.636719 C 55 -27.636719 44.707031 -34.140625 44.707031 -52.019531 L 44.707031 -151.726562 L 14.089844 -151.726562 L 14.089844 -51.207031 C 14.089844 -15.171875 35.765625 -1.082031 70.714844 -1.082031 C 78.300781 -1.082031 88.328125 -1.898438 97.539062 -3.25 L 97.539062 5.148438 C 97.539062 24.65625 90.765625 34.140625 66.652344 34.140625 C 53.648438 34.140625 35.492188 30.34375 23.300781 23.570312 L 29.804688 53.375 C 37.933594 57.980469 56.898438 61.773438 71.527344 61.773438 C 106.210938 61.773438 128.425781 47.144531 128.425781 8.398438 L 128.425781 -150.644531 L 97.539062 -150.644531 Z M 97.539062 -30.34375 "/></g></g></g><g fill="#ffffff" fill-opacity="1"><g transform="translate(372.367689, 792.656761)"><g><path d="M 124.121094 -124.121094 L 124.121094 0 L 196.972656 0 L 196.972656 -126.144531 L 84.320312 -363.59375 L 3.371094 -363.59375 Z M 180.785156 -227.328125 L 211.816406 -157.175781 L 214.511719 -157.175781 L 318.394531 -363.59375 L 245.542969 -363.59375 Z M 180.785156 -227.328125 "/></g></g></g></svg>